<svg xmlns="http://www.w3.org/2000/svg" version="1.1" xmlns:xlink="http://www.w3.org/1999/xlink" xmlns:svgjs="http://svgjs.dev/svgjs" width="1000" height="748" viewBox="0 0 1000 748"><g transform="matrix(1,0,0,1,0.37594292131325346,0.30283605187764806)"><svg viewBox="0 0 330 247" data-background-color="#001529" preserveAspectRatio="xMidYMid meet" height="748" width="1000" xmlns="http://www.w3.org/2000/svg" xmlns:xlink="http://www.w3.org/1999/xlink"><g id="tight-bounds" transform="matrix(1,0,0,1,-0.12406116403337819,-0.10000067488473974)"><svg viewBox="0 0 330.24812232806676 247.2" height="247.2" width="330.24812232806676"><g><svg viewBox="0 0 330.24812232806676 247.2" height="247.2" width="330.24812232806676"><g><svg viewBox="0 0 395.52 296.05783466914994" height="247.2" width="330.24812232806676"><g><svg viewBox="0 0 395.52 296.05783466914994" height="296.05783466914994" width="395.52"><g><svg viewBox="0 0 395.52 296.05783466914994" height="296.05783466914994" width="395.52"><g><svg viewBox="0 0 395.52 245.672304" height="245.672304" width="395.52"><g transform="matrix(1,0,0,1,150.27747575711305,64.93063463062568)"><svg viewBox="0 0 94.96504848577389 115.81103473874865" height="115.81103473874865" width="94.96504848577389"><g><svg version="1.1" xmlns="http://www.w3.org/2000/svg" xmlns:xlink="http://www.w3.org/1999/xlink" x="0" y="0" viewBox="0 0 82 100" enable-background="new 0 0 82 100" xml:space="preserve" height="115.81103473874865" width="94.96504848577389" class="icon-o-0" data-fill-palette-color="accent" id="o-0"><path d="M69.978 30.022l0.013-0.014L41 0 12.01 30.009l0.013 0.014C4.598 37.446 0 47.696 0 59c0 22.607 18.393 41 41 41s41-18.393 41-41C82 47.696 77.402 37.446 69.978 30.022zM21.909 39.909L41 19.8l19.091 20.109-0.008 0.008C64.972 44.807 68 51.557 68 59c0 0.033-0.002 0.066-0.002 0.101-0.445-0.092-0.939-0.146-1.498-0.146-2.275 0-3.49 0.88-4.562 1.657C60.912 61.356 60.024 62 58.09 62c-2.055 0-2.979-0.656-4.047-1.416-1.074-0.764-2.293-1.629-4.543-1.629-2.275 0-3.49 0.88-4.562 1.657C43.912 61.356 43.024 62 41.089 62c-2.054 0-2.978-0.656-4.047-1.416-1.074-0.764-2.292-1.629-4.542-1.629-2.275 0-3.49 0.88-4.562 1.657C26.912 61.356 26.024 62 24.089 62c-2.054 0-2.978-0.656-4.047-1.416-1.074-0.764-2.292-1.629-4.542-1.629-0.559 0-1.053 0.054-1.498 0.146C14.002 59.067 14 59.034 14 59c0-7.443 3.028-14.193 7.917-19.083L21.909 39.909zM41 86c-12.115 0-22.391-8.021-25.799-19.031 0.099-0.005 0.193-0.014 0.299-0.014 1.612 0 2.394 0.556 3.384 1.259C20.062 69.052 21.396 70 24.089 70c2.583 0 3.88-0.939 5.023-1.769 0.983-0.713 1.76-1.276 3.387-1.276 1.612 0 2.394 0.556 3.384 1.259C37.062 69.052 38.396 70 41.089 70c2.583 0 3.879-0.939 5.024-1.769 0.982-0.713 1.76-1.276 3.387-1.276 1.612 0 2.395 0.556 3.384 1.259C54.062 69.052 55.396 70 58.09 70c2.583 0 3.879-0.939 5.023-1.769 0.982-0.713 1.76-1.276 3.387-1.276 0.105 0 0.199 0.009 0.299 0.014C63.391 77.979 53.115 86 41 86z" fill="#199bd3" data-fill-palette-color="accent"></path></svg></g></svg></g><path d="M171.651 28.926L169.126 29.457 158.082 9.047C157.794 8.526 157.526 8.158 157.275 7.944 157.025 7.73 156.634 7.562 156.102 7.441V7.441L155.623 7.357 155.544 6.984 165.235 4.947 165.313 5.32 164.607 5.766C164.097 6.106 163.776 6.454 163.646 6.81 163.517 7.172 163.596 7.614 163.884 8.135V8.135L171.074 22.52 172.705 8.846 171.312 6.419C171.034 5.944 170.795 5.587 170.594 5.349 170.394 5.111 170.105 4.942 169.729 4.843V4.843L168.832 4.58 168.753 4.207 177.933 2.277 178.011 2.65 176.972 3.321C176.517 3.594 176.294 3.901 176.304 4.241 176.308 4.589 176.453 5 176.737 5.474V5.474L184.645 20.047 185.831 3.87C185.878 3.244 185.832 2.717 185.694 2.287 185.549 1.859 185.178 1.609 184.581 1.536V1.536L183.751 1.444 183.673 1.07 188.764 0 188.842 0.373 187.965 0.938C187.516 1.21 187.232 1.55 187.113 1.958 186.992 2.36 186.916 2.845 186.885 3.412V3.412L185.303 26.056 182.777 26.587 173.679 10.55ZM245.182 36.534L241.015 33.878 241.215 33.564 241.991 33.749C242.85 33.971 243.587 33.6 244.202 32.634V32.634L254.495 16.495C254.765 16.071 254.934 15.707 255.002 15.401 255.068 15.085 254.954 14.715 254.661 14.29V14.29L254.078 13.394 254.283 13.072 260.371 16.955 256.467 35.929 271.684 24.169 277.891 28.127 277.686 28.449 277.068 28.316C276.573 28.208 276.17 28.236 275.857 28.402 275.541 28.574 275.25 28.869 274.984 29.287V29.287L264.47 45.773C264.2 46.197 264.045 46.558 264.005 46.858 263.962 47.149 264.088 47.507 264.38 47.932V47.932L264.823 48.619 264.624 48.932 256.783 43.932 256.982 43.619 257.826 43.752C258.33 43.835 258.707 43.797 258.958 43.64 259.213 43.477 259.475 43.184 259.745 42.76V42.76L264.265 35.673 270.075 26.692 251.829 40.773 250.254 39.769 254.904 17.328 249.992 25.237 244.927 33.18C244.632 33.642 244.462 34.058 244.417 34.427 244.373 34.796 244.509 35.173 244.827 35.558V35.558L245.381 36.221ZM167.903 242.802L165.387 242.273 163.488 219.142C163.435 218.549 163.337 218.101 163.196 217.798 163.053 217.501 162.762 217.193 162.322 216.875V216.875L161.919 216.595 161.996 216.232 171.686 218.269 171.61 218.633 170.781 218.767C170.178 218.872 169.744 219.062 169.482 219.335 169.219 219.608 169.114 220.044 169.165 220.643V220.643L169.955 236.706 176.956 224.837 176.666 222.067C176.596 221.518 176.518 221.095 176.43 220.796 176.343 220.497 176.146 220.226 175.841 219.984V219.984L175.128 219.373 175.205 219.009 184.384 220.939 184.308 221.303 183.085 221.507C182.557 221.574 182.23 221.766 182.102 222.081 181.974 222.396 181.941 222.83 182.003 223.384V223.384L183.382 239.909 190.975 225.568C191.268 225.021 191.437 224.523 191.484 224.074 191.524 223.624 191.286 223.242 190.77 222.928V222.928L190.057 222.512 190.134 222.148 195.215 223.216 195.138 223.58 194.109 223.743C193.587 223.818 193.189 224.015 192.917 224.334 192.643 224.66 192.378 225.076 192.121 225.583V225.583L181.555 245.672 179.029 245.141 177.161 226.789ZM254.847 232.544L250.681 235.2 250.481 234.887 250.976 234.262C251.539 233.577 251.513 232.752 250.898 231.786V231.786L240.6 215.638C240.334 215.221 240.074 214.913 239.822 214.717 239.568 214.53 239.186 214.479 238.677 214.566V214.566L237.613 214.708 237.413 214.395 243.501 210.513 259.066 222.051 254.814 203.298 261.03 199.335 261.229 199.648 260.846 200.167C260.538 200.569 260.394 200.947 260.413 201.3 260.435 201.659 260.58 202.047 260.846 202.465V202.465L271.36 218.952C271.63 219.375 271.892 219.668 272.147 219.831 272.398 219.989 272.776 220.026 273.279 219.944V219.944L274.097 219.827 274.297 220.14 266.448 225.146 266.248 224.832 266.725 224.123C267.018 223.698 267.143 223.34 267.1 223.05 267.06 222.75 266.905 222.388 266.635 221.965V221.965L262.115 214.877 256.423 205.822 261.494 228.305 259.919 229.309 241.534 215.627 246.633 223.417 251.698 231.36C251.993 231.822 252.298 232.152 252.614 232.348 252.929 232.544 253.329 232.579 253.812 232.453V232.453L254.647 232.23ZM77.304 126.957C77.304 121.751 81.524 117.531 86.73 117.531 91.936 117.531 96.156 121.751 96.156 126.957 96.156 132.163 91.936 136.383 86.73 136.383 81.524 136.383 77.304 132.163 77.304 126.957ZM299.364 126.957C299.364 121.751 303.584 117.531 308.79 117.531 313.996 117.531 318.216 121.751 318.216 126.957 318.216 132.163 313.996 136.383 308.79 136.383 303.584 136.383 299.364 132.163 299.364 126.957Z" fill="#ffffff" data-fill-palette-color="primary"></path></svg></g><g transform="matrix(1,0,0,1,75.54432,260.85485238719997)"><svg viewBox="0 0 244.43135999999998 35.20298228194993" height="35.20298228194993" width="244.43135999999998"><g transform="matrix(1,0,0,1,0,0)"><svg width="244.43135999999998" viewBox="2.559999942779541 -36.04144287109375 255.1300048828125 36.55144119262695" height="35.20298228194993" data-palette-color="#199bd3"><g class="undefined-text-1" data-fill-palette-color="secondary" id="text-1"><path d="M15.41 0.51L15.41 0.51Q11.77 0.51 8.64-0.39 5.52-1.29 2.56-3.39L2.56-3.39 2.56-11.57 7.32-11.57 8.11-6.27Q9.4-5.35 11.29-4.79 13.18-4.22 15.41-4.22L15.41-4.22Q17.58-4.22 19.06-4.85 20.53-5.47 21.31-6.59 22.09-7.71 22.09-9.25L22.09-9.25Q22.09-10.67 21.41-11.77 20.73-12.87 19.14-13.73 17.55-14.6 14.84-15.33L14.84-15.33Q10.86-16.41 8.19-17.87 5.52-19.34 4.16-21.39 2.81-23.44 2.81-26.22L2.81-26.22Q2.81-29.08 4.36-31.27 5.91-33.47 8.67-34.74 11.43-36.01 15.04-36.04L15.04-36.04Q18.99-36.08 22.03-35.01 25.07-33.94 27.17-32.2L27.17-32.2 27.17-24.56 22.51-24.56 21.63-29.54Q20.63-30.25 19.03-30.75 17.43-31.25 15.26-31.25L15.26-31.25Q13.4-31.25 11.99-30.64 10.57-30.03 9.77-28.92 8.96-27.81 8.96-26.27L8.96-26.27Q8.96-24.93 9.67-23.93 10.38-22.92 12.04-22.11 13.7-21.29 16.53-20.46L16.53-20.46Q22.31-18.92 25.29-16.21 28.27-13.5 28.27-9.3L28.27-9.3Q28.27-6.35 26.67-4.14 25.07-1.93 22.18-0.71 19.29 0.51 15.41 0.51ZM40.4 0.51L40.4 0.51Q36.37 0.51 34.13-1.56 31.88-3.64 31.88-7.28L31.88-7.28Q31.88-9.77 33.25-11.65 34.62-13.53 37.25-14.59 39.89-15.65 43.65-15.65L43.65-15.65 47.68-15.65 47.68-17.87Q47.68-19.97 46.42-21.22 45.16-22.46 42.77-22.46L42.77-22.46Q41.4-22.46 40.35-22.13 39.3-21.8 38.47-21.19L38.47-21.19 37.91-17.63 33.4-17.63 33.35-24.15Q35.3-25.42 37.69-26.16 40.09-26.9 43.02-26.9L43.02-26.9Q48.04-26.9 50.94-24.55 53.83-22.19 53.83-17.8L53.83-17.8 53.83-6.15Q53.83-5.62 53.84-5.1 53.85-4.59 53.9-4.1L53.9-4.1 56.59-3.76 56.59 0 48.56 0Q48.31-0.85 48.11-1.66 47.9-2.47 47.8-3.27L47.8-3.27Q46.48-1.61 44.61-0.55 42.75 0.51 40.4 0.51ZM41.79-4.25L41.79-4.25Q43.65-4.25 45.26-5.11 46.87-5.98 47.68-7.3L47.68-7.3 47.68-11.72 43.58-11.72Q40.82-11.72 39.41-10.44 38.01-9.16 38.01-7.45L38.01-7.45Q38.01-5.91 38.99-5.08 39.96-4.25 41.79-4.25ZM75.9 0L69.92 0 61.35-22.22 58.54-22.63 58.54-26.42 70.62-26.42 70.62-22.63 67.57-22.14 72.33-8.89 72.97-6.79 73.12-6.79 73.85-8.89 78.66-22.14 75.31-22.63 75.31-26.42 87.37-26.42 87.37-22.63 84.49-22.19 75.9 0ZM102.02 0.51L102.02 0.51Q98.28 0.51 95.51-1.16 92.74-2.83 91.22-5.79 89.69-8.74 89.69-12.55L89.69-12.55 89.69-13.57Q89.69-17.43 91.19-20.45 92.69-23.46 95.33-25.18 97.97-26.9 101.34-26.9L101.34-26.9Q104.92-26.9 107.35-25.46 109.78-24.02 111.03-21.37 112.27-18.73 112.27-15.01L112.27-15.01 112.27-11.5 96.06-11.5 96.01-11.38Q96.11-9.3 96.88-7.69 97.65-6.08 99.08-5.15 100.51-4.22 102.56-4.22L102.56-4.22Q104.7-4.22 106.46-4.81 108.22-5.4 109.71-6.47L109.71-6.47 111.64-2.61Q110.08-1.29 107.66-0.39 105.24 0.51 102.02 0.51ZM96.09-15.94L96.16-15.82 106.39-15.82 106.39-16.46Q106.39-18.19 105.86-19.49 105.34-20.8 104.23-21.53 103.12-22.27 101.41-22.27L101.41-22.27Q99.92-22.27 98.8-21.44 97.67-20.61 97-19.18 96.33-17.75 96.09-15.94L96.09-15.94Z" fill="#ffffff" data-fill-palette-color="primary"></path><path d="M130.7 0L125.14 0 116.86-31.4 113.49-31.76 113.49-35.55 126.63-35.55 126.63-31.76 122.84-31.2 127.21-12.94 128.11-9.2 128.26-9.18 129.38-12.94 136.46-35.55 141.27-35.55 148.55-12.57 149.62-8.94 149.77-8.94 150.72-12.57 155.17-31.2 151.16-31.76 151.16-35.55 164.05-35.55 164.05-31.76 160.9-31.4 152.72 0 147.06 0 139.91-22.39 139-25.61 138.86-25.61 137.9-22.34 130.7 0ZM175.65 0.51L175.65 0.51Q171.62 0.51 169.37-1.56 167.13-3.64 167.13-7.28L167.13-7.28Q167.13-9.77 168.49-11.65 169.86-13.53 172.5-14.59 175.13-15.65 178.89-15.65L178.89-15.65 182.92-15.65 182.92-17.87Q182.92-19.97 181.66-21.22 180.41-22.46 178.01-22.46L178.01-22.46Q176.65-22.46 175.6-22.13 174.55-21.8 173.72-21.19L173.72-21.19 173.16-17.63 168.64-17.63 168.59-24.15Q170.54-25.42 172.94-26.16 175.33-26.9 178.26-26.9L178.26-26.9Q183.29-26.9 186.18-24.55 189.07-22.19 189.07-17.8L189.07-17.8 189.07-6.15Q189.07-5.62 189.09-5.1 189.1-4.59 189.15-4.1L189.15-4.1 191.83-3.76 191.83 0 183.8 0Q183.56-0.85 183.35-1.66 183.14-2.47 183.04-3.27L183.04-3.27Q181.73-1.61 179.86-0.55 177.99 0.51 175.65 0.51ZM177.04-4.25L177.04-4.25Q178.89-4.25 180.5-5.11 182.12-5.98 182.92-7.3L182.92-7.3 182.92-11.72 178.82-11.72Q176.06-11.72 174.66-10.44 173.25-9.16 173.25-7.45L173.25-7.45Q173.25-5.91 174.23-5.08 175.21-4.25 177.04-4.25ZM204.79 0.46L204.79 0.46Q201.43 0.46 199.55-1.43 197.67-3.32 197.67-7.47L197.67-7.47 197.67-22.02 193.81-22.02 193.81-26.42 197.67-26.42 197.67-32.84 203.79-32.84 203.79-26.42 209.02-26.42 209.02-22.02 203.79-22.02 203.79-7.47Q203.79-5.79 204.49-5.02 205.18-4.25 206.38-4.25L206.38-4.25Q207.06-4.25 207.91-4.37 208.75-4.49 209.26-4.61L209.26-4.61 209.9-0.29Q208.82 0.02 207.44 0.24 206.06 0.46 204.79 0.46ZM225.13 0.51L225.13 0.51Q221.39 0.51 218.62-1.16 215.85-2.83 214.33-5.79 212.8-8.74 212.8-12.55L212.8-12.55 212.8-13.57Q212.8-17.43 214.3-20.45 215.8-23.46 218.44-25.18 221.08-26.9 224.45-26.9L224.45-26.9Q228.03-26.9 230.46-25.46 232.89-24.02 234.14-21.37 235.38-18.73 235.38-15.01L235.38-15.01 235.38-11.5 219.17-11.5 219.12-11.38Q219.22-9.3 219.99-7.69 220.76-6.08 222.19-5.15 223.62-4.22 225.67-4.22L225.67-4.22Q227.81-4.22 229.57-4.81 231.33-5.4 232.82-6.47L232.82-6.47 234.75-2.61Q233.19-1.29 230.77-0.39 228.35 0.51 225.13 0.51ZM219.2-15.94L219.27-15.82 229.5-15.82 229.5-16.46Q229.5-18.19 228.97-19.49 228.45-20.8 227.34-21.53 226.23-22.27 224.52-22.27L224.52-22.27Q223.03-22.27 221.91-21.44 220.78-20.61 220.11-19.18 219.44-17.75 219.2-15.94L219.2-15.94ZM252.62 0L239.14 0 239.14-3.76 242.8-4.49 242.8-21.9 238.94-22.63 238.94-26.42 248.47-26.42 248.78-23.1 248.83-22.56Q249.88-24.66 251.41-25.78 252.93-26.9 254.98-26.9L254.98-26.9Q255.67-26.9 256.44-26.78 257.21-26.66 257.69-26.51L257.69-26.51 256.99-20.83 253.54-21.02Q251.86-21.12 250.77-20.36 249.69-19.6 248.95-18.26L248.95-18.26 248.95-4.49 252.62-3.76 252.62 0Z" fill="#199bd3" data-fill-palette-color="secondary"></path></g></svg></g></svg></g></svg></g></svg></g><g></g></svg></g></svg></g><defs></defs></svg><rect width="330.24812232806676" height="247.2" fill="none" stroke="none" visibility="hidden"></rect></g></svg></g></svg>